# xmcd
#
# Track frame offsets:
#	332
#	17072
#	27800
#	37772
#	49142
#	58797
#	74330
#	88770
#	100637
#	114380
#	125857
#	142520
#	150905
#	165185
#	175842
#	190995
#	201375
#
# Disc length: 2929 seconds
#
# Revision: 2
# Processed by: cddbd v1.5.2PL0 Copyright (c) Steve Scherf et al.
# Submitted via: EasyCDDAExtractor 16.1.0.1
#
DISCID=d70b6d11
DTITLE=Greenhorns a White Stars - Písně amerického Západu
DYEAR=1995
DGENRE=Country
TTITLE0=Greenhorns - Přes pláně
TTITLE1=White Stars - Vůz do Tenessee
TTITLE2=Greenhorns - Má Whisky
TTITLE3=White Stars - Jesse James
TTITLE4=Greenhorns - John Hardy
TTITLE5=Greenhorns - Červená řeka
TTITLE6=Greenhorns - Drnová chajda
TTITLE7=White Stars - Čekání na vlak
TTITLE8=Greenhorns - T jako Texas
TTITLE9=Greenhorns - Na sluneční straně hor
TTITLE10=Greenhorns - Svatební zvony
TTITLE11=Greenhorns - Hardy
TTITLE12=Greenhorns - Zátoka
TTITLE13=Greenhorns - Odjíždím v dál
TTITLE14=Greenhorns - Žloutnou už trávy
TTITLE15=Greenhorns - Kočárem mým je vagón uhlí
TTITLE16=Greenhorns - Proklatej vůz
EXTD=YEAR: 1995
EXTT0=
EXTT1=
EXTT2=
EXTT3=
EXTT4=
EXTT5=
EXTT6=
EXTT7=
EXTT8=
EXTT9=
EXTT10=
EXTT11=
EXTT12=
EXTT13=
EXTT14=
EXTT15=
EXTT16=
PLAYORDER=
